<?xml version="1.0" encoding="UTF-8"?>
<svg version="1.1" xmlns="http://www.w3.org/2000/svg" width="512" height="512">
<path d="M0 0 C7.25732731 5.93650648 13.52238518 6.26336998 22.62101173 6.12005234 C24.07434958 6.1230351 25.52768382 6.12914075 26.98099709 6.13810349 C30.09366323 6.15067316 33.20520242 6.14144524 36.31777763 6.11479568 C41.25472536 6.07268086 46.19087578 6.08015023 51.12793922 6.09374619 C58.94981873 6.1094844 66.77122277 6.09234807 74.59304273 6.06107545 C88.56748943 6.00580432 102.54194202 5.99733153 116.51647699 6.01457906 C121.40784404 6.01920469 126.29876328 6.00670981 131.19005322 5.97947359 C134.25442405 5.965032 137.31872616 5.96292515 140.38312721 5.96351433 C141.78580932 5.96116442 143.18849541 5.9537512 144.59111595 5.94040108 C173.82158561 5.67205262 199.62088504 16.72987489 220.78263283 36.71868515 C242.20742536 59.38471251 249.94929158 85.9149809 249.31388283 116.44524765 C248.27105193 143.5365045 235.52586635 167.84730092 215.97013283 186.28118515 C195.57890347 204.80028308 170.29223775 212.71956307 143.076334 212.4413414 C141.62109261 212.43425023 140.16584583 212.42820282 138.71059608 212.42310715 C135.60050356 212.41097702 132.49050569 212.39346169 129.38046265 212.37218857 C124.44804077 212.34042061 119.51575952 212.33283771 114.58324623 212.33050156 C113.32826868 212.32973114 113.32826868 212.32973114 112.04793805 212.32894516 C110.33840563 212.32790391 108.62887319 212.32689963 106.91934073 212.32593155 C95.45578838 212.31806895 83.99272917 212.29284822 72.529459 212.20940781 C64.76889343 212.15310668 57.00911495 212.13276476 49.2483595 212.15260792 C45.15442092 212.16163226 41.06233137 212.15294443 36.96868896 212.09981918 C14.83788422 211.09578034 14.83788422 211.09578034 -4.20642662 220.76092148 C-21.86559075 236.52387063 -52.8148499 240.04574707 -75.61189842 239.1835289 C-111.57761863 237.05505684 -142.87354118 221.67398786 -167.61971092 195.54681015 C-193.21375049 166.27337469 -200.73485444 131.23858328 -199.02986717 93.28118515 C-196.07586723 60.62476655 -177.78725222 30.35500145 -153.34236717 9.15618515 C-141.6599022 -0.23500927 -128.98360631 -7.30741332 -115.02986717 -12.71881485 C-114.00377342 -13.11842422 -112.97767967 -13.5180336 -111.92049217 -13.92975235 C-78.64097764 -25.89238866 -28.31519442 -23.97623712 0 0 Z M-144.34236717 47.09368515 C-152.03653514 56.74886671 -157.94688099 67.62796481 -162.02986717 79.28118515 C-162.42303123 80.37688828 -162.8161953 81.4725914 -163.22127342 82.60149765 C-170.9172677 107.86152068 -166.09995179 134.03158118 -154.15486717 156.96868515 C-151.23361943 162.15705901 -147.86849704 166.73959631 -144.02986717 171.28118515 C-143.3621328 172.09458359 -142.69439842 172.90798203 -142.00642967 173.7460289 C-136.3895319 180.32611312 -130.15237236 185.39798807 -123.02986717 190.28118515 C-122.22935936 190.83677109 -121.42885155 191.39235703 -120.60408592 191.9647789 C-107.40061784 200.50819942 -90.63713685 205.33961312 -75.02986717 206.28118515 C-73.98766014 206.36046249 -73.98766014 206.36046249 -72.92439842 206.4413414 C-47.9468815 207.43012434 -23.27998047 197.65289604 -4.92439842 181.02337265 C13.15365906 163.89679188 25.92848558 140.59774207 26.97013283 115.28118515 C27.01009377 114.38528671 27.0500547 113.48938828 27.09122658 112.5663414 C27.67799083 86.30001221 17.94777568 62.90836923 0.97013283 43.28118515 C0.38747658 42.59669296 -0.19517967 41.91220078 -0.79549217 41.2069664 C-16.07278677 24.65656392 -40.50497099 13.59988664 -62.88142967 12.3397789 C-63.94490623 12.31077499 -63.94490623 12.31077499 -65.02986717 12.28118515 C-65.73885155 12.23091171 -66.44783592 12.18063828 -67.17830467 12.1288414 C-96.88628862 10.86143594 -125.11114726 25.04814038 -144.34236717 47.09368515 Z M39.97013283 39.28118515 C41.19195219 42.3676652 42.45966931 45.36592008 43.95841408 48.32806015 C60.27635554 81.19570208 63.62268709 117.24944382 51.97013283 152.28118515 C48.95864191 160.4028713 45.27848202 168.24991543 40.81778908 175.67962265 C39.81420327 177.27379034 39.81420327 177.27379034 39.97013283 179.28118515 C54.83552352 179.37503906 69.70089107 179.44536393 84.56651592 179.48843384 C91.47044336 179.50897236 98.37418565 179.53692386 105.27799416 179.58294296 C111.94997554 179.62739518 118.6217256 179.65037365 125.29386139 179.66069412 C127.82975654 179.66804186 130.36564211 179.68238937 132.90145493 179.70410538 C152.28479847 179.87583851 152.28479847 179.87583851 170.97013283 175.28118515 C171.71463188 175.00609619 172.45913094 174.73100723 173.22619057 174.44758224 C192.59539692 166.51449907 205.07580671 151.10043074 212.97013283 132.28118515 C218.88424824 117.45620457 217.6976426 97.97275607 211.97013283 83.28118515 C204.2590712 65.80144701 191.10836674 51.43882541 173.22619057 44.11478806 C172.48169151 43.8396991 171.73719246 43.56461014 170.97013283 43.28118515 C170.06526634 42.94522827 169.16039986 42.60927139 168.22811317 42.263134 C155.38670013 38.19500148 142.4779461 38.77625449 129.13028908 38.89056015 C126.55098347 38.89803367 123.97167213 38.90372134 121.39235878 38.90771103 C115.33657204 38.9213359 109.28112573 38.95274344 103.22546619 38.99310899 C96.32081772 39.0381158 89.41615371 39.05988569 82.51139462 39.07989073 C68.33081664 39.12148674 54.15048529 39.19165629 39.97013283 39.28118515 Z " fill="#000000" transform="translate(231.0298671722412,146.71881484985352)"/>
<path d="M0 0 C4.93461319 2.29107041 7.35281968 5.29390165 10 10 C10.86644569 12.79312258 11.1284474 15.30683754 11.14044189 18.22357178 C11.14615204 19.05892456 11.15186218 19.89427734 11.15774536 20.75494385 C11.15886322 21.66306824 11.15998108 22.57119263 11.16113281 23.50683594 C11.16858017 24.95147217 11.16858017 24.95147217 11.17617798 26.42529297 C11.1907833 29.61166092 11.19759924 32.79797907 11.203125 35.984375 C11.2088782 38.20151775 11.21463591 40.41866049 11.22039795 42.63580322 C11.23090358 47.28617586 11.23674899 51.93653123 11.24023438 56.58691406 C11.24571534 62.53639468 11.26973689 68.48564601 11.29820633 74.43505478 C11.31686071 79.01622172 11.32203983 83.59733376 11.32357025 88.17853546 C11.32659143 90.37131248 11.33460187 92.56408866 11.34775543 94.75682831 C11.36487269 97.8299232 11.36292156 100.90246229 11.35644531 103.97558594 C11.37026749 105.32562714 11.37026749 105.32562714 11.3843689 106.70294189 C11.34485111 112.71050322 10.85027327 118.93343284 6.54802322 123.56216049 C1.29013323 128.05224404 -2.27188504 128.34994382 -9.015625 128.27734375 C-14.30607847 127.78569166 -16.79367948 125.41549743 -20.12390137 121.5078125 C-22.67731774 116.73359344 -22.56169296 112.83328599 -22.51757812 107.5 C-22.5245874 106.45537598 -22.53159668 105.41075195 -22.53881836 104.33447266 C-22.55639022 100.88937619 -22.54477782 97.44510449 -22.53125 94 C-22.53394513 91.6015609 -22.53782772 89.20312286 -22.54284668 86.8046875 C-22.54874066 81.78114405 -22.54018159 76.75788533 -22.52148438 71.734375 C-22.49869537 65.29810928 -22.51181892 58.86251078 -22.53577423 52.42626953 C-22.55023461 47.47455832 -22.545625 42.52300505 -22.53526306 37.57128906 C-22.53259647 35.19824138 -22.53586314 32.82517932 -22.54518127 30.45214844 C-22.55535031 27.13437972 -22.53983934 23.81768855 -22.51757812 20.5 C-22.52567505 19.52111816 -22.53377197 18.54223633 -22.54211426 17.53369141 C-22.47140556 11.83962115 -21.83517225 8.50019407 -18 4 C-12.72867143 -1.00776214 -6.89190982 -0.92775709 0 0 Z " fill="#000000" transform="translate(199,192)"/>
<path d="M0 0 C4.93461319 2.29107041 7.35281968 5.29390165 10 10 C10.86644569 12.79312258 11.1284474 15.30683754 11.14044189 18.22357178 C11.14615204 19.05892456 11.15186218 19.89427734 11.15774536 20.75494385 C11.15886322 21.66306824 11.15998108 22.57119263 11.16113281 23.50683594 C11.16858017 24.95147217 11.16858017 24.95147217 11.17617798 26.42529297 C11.1907833 29.61166092 11.19759924 32.79797907 11.203125 35.984375 C11.2088782 38.20151775 11.21463591 40.41866049 11.22039795 42.63580322 C11.23090358 47.28617586 11.23674899 51.93653123 11.24023438 56.58691406 C11.24571534 62.53639468 11.26973689 68.48564601 11.29820633 74.43505478 C11.31686071 79.01622172 11.32203983 83.59733376 11.32357025 88.17853546 C11.32659143 90.37131248 11.33460187 92.56408866 11.34775543 94.75682831 C11.36487269 97.8299232 11.36292156 100.90246229 11.35644531 103.97558594 C11.37026749 105.32562714 11.37026749 105.32562714 11.3843689 106.70294189 C11.34485111 112.71050322 10.85027327 118.93343284 6.54802322 123.56216049 C1.29013323 128.05224404 -2.27188504 128.34994382 -9.015625 128.27734375 C-14.30607847 127.78569166 -16.79367948 125.41549743 -20.12390137 121.5078125 C-22.67731774 116.73359344 -22.56169296 112.83328599 -22.51757812 107.5 C-22.5245874 106.45537598 -22.53159668 105.41075195 -22.53881836 104.33447266 C-22.55639022 100.88937619 -22.54477782 97.44510449 -22.53125 94 C-22.53394513 91.6015609 -22.53782772 89.20312286 -22.54284668 86.8046875 C-22.54874066 81.78114405 -22.54018159 76.75788533 -22.52148438 71.734375 C-22.49869537 65.29810928 -22.51181892 58.86251078 -22.53577423 52.42626953 C-22.55023461 47.47455832 -22.545625 42.52300505 -22.53526306 37.57128906 C-22.53259647 35.19824138 -22.53586314 32.82517932 -22.54518127 30.45214844 C-22.55535031 27.13437972 -22.53983934 23.81768855 -22.51757812 20.5 C-22.52567505 19.52111816 -22.53377197 18.54223633 -22.54211426 17.53369141 C-22.47140556 11.83962115 -21.83517225 8.50019407 -18 4 C-12.72867143 -1.00776214 -6.89190982 -0.92775709 0 0 Z " fill="#000000" transform="translate(135,192)"/>
</svg>
