<?xml version="1.0" encoding="UTF-8"?>
<svg version="1.1" xmlns="http://www.w3.org/2000/svg" width="512" height="512">
<path d="M0 0 C22.40136758 21.68073535 38.31273513 52.98964707 38.85546875 84.56982422 C39.39055635 123.85677193 29.08332353 156.81336228 1.4765625 185.71826172 C-23.18877078 210.82824216 -56.93391594 223.01992886 -91.66943359 223.60058594 C-115.58207341 223.50161334 -146.1100949 216.62284608 -164.21473694 199.98721313 C-169.69656788 196.08682201 -176.24351014 196.91192076 -182.69311523 196.97753906 C-184.14600812 196.97399413 -185.59889701 196.96821224 -187.05177307 196.96037292 C-190.172459 196.9482223 -193.29259756 196.95162821 -196.41326714 196.96720505 C-201.36250422 196.99162192 -206.31126727 196.97998307 -211.26051331 196.96353149 C-219.99545931 196.93905702 -228.73018848 196.94482182 -237.46514893 196.95733643 C-250.57917273 196.97590386 -263.69315197 196.97084219 -276.80714566 196.93730223 C-281.71100383 196.92588823 -286.61451156 196.93009137 -291.51834953 196.94732261 C-294.59257537 196.95531359 -297.66670294 196.95091045 -300.74092674 196.94361305 C-302.14843169 196.942814 -303.55595156 196.94700861 -304.96342087 196.95705605 C-334.22061157 197.15550517 -360.00293495 186.16959778 -381.1953125 166.15185547 C-400.06956926 146.18412791 -410.04496371 121.15069392 -409.8203125 93.77685547 C-409.81201416 92.46241455 -409.80371582 91.14797363 -409.79516602 89.79370117 C-409.62312307 79.87704797 -408.68777245 70.9395688 -405.3828125 61.58935547 C-405.14675293 60.89632324 -404.91069336 60.20329102 -404.66748047 59.48925781 C-395.32259818 32.71987548 -375.96258154 12.09899586 -350.7265625 -0.43408203 C-335.61130419 -7.55152669 -320.07978682 -9.74040429 -303.48901367 -9.57080078 C-302.03377228 -9.56370961 -300.5785255 -9.5576622 -299.12327576 -9.55256653 C-296.01318323 -9.54043641 -292.90318536 -9.52292107 -289.79314232 -9.50164795 C-284.86072044 -9.46988 -279.92843919 -9.46229709 -274.9959259 -9.45996094 C-273.74094835 -9.45919052 -273.74094835 -9.45919052 -272.46061772 -9.45840454 C-270.7510853 -9.45736329 -269.04155286 -9.45635901 -267.3320204 -9.45539093 C-255.86846805 -9.44752833 -244.40540885 -9.4223076 -232.94213867 -9.33886719 C-225.1815731 -9.28256606 -217.42179462 -9.26222414 -209.66103917 -9.2820673 C-205.56710059 -9.29109164 -201.47501104 -9.28240382 -197.38136864 -9.22927856 C-175.25056389 -8.22523972 -175.25056389 -8.22523972 -156.20625305 -17.89038086 C-113.58561783 -55.93447517 -36.91564214 -34.71880817 0 0 Z M-161.75 27.68310547 C-178.96167627 47.77711987 -188.99474471 72.83813999 -187.3828125 99.58935547 C-185.45264025 122.53393824 -176.33545874 142.3031902 -161.3828125 159.58935547 C-160.80015625 160.27384766 -160.2175 160.95833984 -159.6171875 161.66357422 C-142.38466942 180.33213547 -117.4576118 188.62331866 -92.8828125 190.81201172 C-67.08093767 191.84229492 -43.06301055 180.43204614 -23.8828125 164.02685547 C-7.66260122 148.84788457 4.50773733 126.18291782 5.77832031 103.74365234 C6.1657286 76.66110994 1.84859535 52.87844178 -16.3828125 31.58935547 C-17.04925781 30.77853516 -17.71570313 29.96771484 -18.40234375 29.13232422 C-24.01712501 22.54633755 -30.25804949 17.47410052 -37.3828125 12.58935547 C-38.18332031 12.03376953 -38.98382813 11.47818359 -39.80859375 10.90576172 C-78.27752473 -13.9858995 -130.97024585 -5.10738639 -161.75 27.68310547 Z M-331.3828125 27.58935547 C-332.12731155 27.86444443 -332.87181061 28.13953339 -333.63887024 28.42295837 C-353.00807659 36.35604155 -365.48848638 51.77010988 -373.3828125 70.58935547 C-379.29692791 85.41433604 -378.11032227 104.89778455 -372.3828125 119.58935547 C-364.67175087 137.06909361 -351.52104642 151.43171521 -333.63887024 158.75575256 C-332.52212166 159.168386 -332.52212166 159.168386 -331.3828125 159.58935547 C-330.47794601 159.92531235 -329.57307953 160.26126923 -328.64079285 160.60740662 C-315.7993798 164.67553914 -302.89062577 164.09428613 -289.54296875 163.97998047 C-286.96366314 163.97250695 -284.3843518 163.96681928 -281.80503845 163.96282959 C-275.74925172 163.94920472 -269.6938054 163.91779718 -263.63814586 163.87743163 C-256.73349739 163.83242482 -249.82883338 163.81065492 -242.92407429 163.79064989 C-228.74349632 163.74905388 -214.56316496 163.67888433 -200.3828125 163.58935547 C-201.60463186 160.50287542 -202.87234899 157.50462054 -204.37109375 154.54248047 C-220.68903521 121.67483854 -224.03536676 85.6210968 -212.3828125 50.58935547 C-209.37132158 42.46766932 -205.69116169 34.62062519 -201.23046875 27.19091797 C-200.22688294 25.59675028 -200.22688294 25.59675028 -200.3828125 23.58935547 C-215.24820319 23.49550156 -230.11357074 23.42517669 -244.97919559 23.38210678 C-251.88312303 23.36156826 -258.78686532 23.33361676 -265.69067383 23.28759766 C-272.36265521 23.24314544 -279.03440527 23.22016697 -285.70654106 23.2098465 C-288.24243621 23.20249875 -290.77832178 23.18815125 -293.3141346 23.16643524 C-312.69747814 22.99470211 -312.69747814 22.99470211 -331.3828125 27.58935547 Z " fill="#000000" transform="translate(441.3828125,162.41064453125)"/>
<path d="M0 0 C4.88459777 2.95748291 9.82743023 5.80797589 14.77954102 8.65063477 C18.16071822 10.59175711 21.5359348 12.54291049 24.91015625 14.49609375 C28.5221119 16.58563212 32.14245319 18.65601385 35.78515625 20.69140625 C46.48198726 26.73783204 53.97381913 32.82930173 57.44140625 45.07421875 C59.49412567 54.83746548 57.78495867 63.8626517 52.6171875 72.45703125 C47.12023138 79.46101804 39.4028407 83.31994353 31.75390625 87.54833984 C27.65859261 89.83186411 23.60662175 92.18916808 19.54956055 94.53979492 C16.20105711 96.47878655 12.8470148 98.40791253 9.4921875 100.3359375 C5.45403602 102.66080624 1.42992932 105.00645047 -2.578125 107.3828125 C-3.43615723 107.8888501 -4.29418945 108.3948877 -5.17822266 108.91625977 C-6.75072649 109.84520941 -8.31972307 110.78013525 -9.88427734 111.72241211 C-19.06472931 117.12745861 -28.40545626 118.61193516 -38.90234375 116.4296875 C-46.79708244 113.92377325 -53.12803379 109.51697771 -57.56640625 102.4453125 C-60.89314274 96.00094868 -62.05582554 91.06847936 -62.1105957 83.79077148 C-62.1171669 83.06658524 -62.1237381 82.34239899 -62.13050842 81.5962677 C-62.15018896 79.20350019 -62.16189551 76.81079546 -62.171875 74.41796875 C-62.17595053 73.59689196 -62.18002605 72.77581516 -62.18422508 71.92985725 C-62.20506871 67.57946146 -62.21937486 63.229097 -62.22875977 58.87866211 C-62.23978929 54.40907494 -62.27415367 49.9399904 -62.31393147 45.4705801 C-62.34022152 42.01391242 -62.34846277 38.55736194 -62.35204124 35.1006031 C-62.35687937 33.45454598 -62.36841315 31.80849311 -62.38707924 30.16253471 C-62.51750174 17.89437085 -61.77005487 7.06117634 -52.85546875 -2.234375 C-35.81443392 -17.47432485 -17.19049252 -10.4145827 0 0 Z M-28.93359375 23.046875 C-28.93359375 42.846875 -28.93359375 62.646875 -28.93359375 83.046875 C-25.84711555 81.81228372 -23.19433893 80.73472959 -20.3515625 79.15625 C-19.67826904 78.78314697 -19.00497559 78.41004395 -18.3112793 78.02563477 C-17.58851807 77.62014404 -16.86575684 77.21465332 -16.12109375 76.796875 C-15.35643799 76.37011475 -14.59178223 75.94335449 -13.80395508 75.50366211 C-3.09799687 69.49674233 7.49525265 63.28737623 18.06640625 57.046875 C18.99670654 56.53116943 19.92700684 56.01546387 20.88549805 55.48413086 C21.96504761 54.77268921 21.96504761 54.77268921 23.06640625 54.046875 C23.06640625 53.386875 23.06640625 52.726875 23.06640625 52.046875 C22.40447266 51.6657959 21.74253906 51.2847168 21.06054688 50.89208984 C18.48090386 49.40653149 15.90159875 47.92038839 13.32250977 46.43386841 C12.15383878 45.76039596 10.98505659 45.08711645 9.81616211 44.41403198 C3.21712492 40.61370581 -3.37163961 36.79766963 -9.93359375 32.93359375 C-11.02736328 32.2905127 -12.12113281 31.64743164 -13.24804688 30.98486328 C-15.3478553 29.74860268 -17.44556764 28.5087739 -19.54101562 27.26513672 C-20.48525391 26.70971191 -21.42949219 26.15428711 -22.40234375 25.58203125 C-23.23185547 25.090979 -24.06136719 24.59992676 -24.91601562 24.09399414 C-26.85060039 22.89332414 -26.85060039 22.89332414 -28.93359375 23.046875 Z " fill="#000000" transform="translate(360.93359375,202.953125)"/>
</svg>
